<svg id="SvgjsSvg1474" width="1325" height="552.5375061035156" xmlns="http://www.w3.org/2000/svg" version="1.1" xmlns:xlink="http://www.w3.org/1999/xlink" xmlns:svgjs="http://svgjs.com/svgjs"><defs id="SvgjsDefs1475"><marker id="SvgjsMarker1490" markerWidth="14" markerHeight="10" refX="10" refY="5" viewBox="0 0 14 10" orient="auto" markerUnits="userSpaceOnUse" stroke-dasharray="0,0"><path id="SvgjsPath1491" d="M0,0 L14,5 L0,10 L0,0" fill="#323232" stroke="#323232" stroke-width="1"></path></marker><marker id="SvgjsMarker1512" markerWidth="14" markerHeight="10" refX="10" refY="5" viewBox="0 0 14 10" orient="auto" markerUnits="userSpaceOnUse" stroke-dasharray="0,0"><path id="SvgjsPath1513" d="M0,0 L14,5 L0,10 L0,0" fill="#323232" stroke="#323232" stroke-width="1"></path></marker><marker id="SvgjsMarker1516" markerWidth="14" markerHeight="10" refX="10" refY="5" viewBox="0 0 14 10" orient="auto" markerUnits="userSpaceOnUse" stroke-dasharray="0,0"><path id="SvgjsPath1517" d="M0,0 L14,5 L0,10 L0,0" fill="#323232" stroke="#323232" stroke-width="1"></path></marker><marker id="SvgjsMarker1520" markerWidth="14" markerHeight="10" refX="10" refY="5" viewBox="0 0 14 10" orient="auto" markerUnits="userSpaceOnUse" stroke-dasharray="0,0"><path id="SvgjsPath1521" d="M0,0 L14,5 L0,10 L0,0" fill="#323232" stroke="#323232" stroke-width="1"></path></marker><marker id="SvgjsMarker1554" markerWidth="14" markerHeight="10" refX="10" refY="5" viewBox="0 0 14 10" orient="auto" markerUnits="userSpaceOnUse" stroke-dasharray="0,0"><path id="SvgjsPath1555" d="M0,0 L14,5 L0,10 L0,0" fill="#323232" stroke="#323232" stroke-width="1"></path></marker><marker id="SvgjsMarker1558" markerWidth="14" markerHeight="10" refX="10" refY="5" viewBox="0 0 14 10" orient="auto" markerUnits="userSpaceOnUse" stroke-dasharray="0,0"><path id="SvgjsPath1559" d="M0,0 L14,5 L0,10 L0,0" fill="#323232" stroke="#323232" stroke-width="1"></path></marker><marker id="SvgjsMarker1562" markerWidth="14" markerHeight="10" refX="10" refY="5" viewBox="0 0 14 10" orient="auto" markerUnits="userSpaceOnUse" stroke-dasharray="0,0"><path id="SvgjsPath1563" d="M0,0 L14,5 L0,10 L0,0" fill="#323232" stroke="#323232" stroke-width="1"></path></marker></defs><g id="SvgjsG1476" transform="translate(369.23748779296875,133.53749084472665)"><path id="SvgjsPath1477" d="M 0 4Q 0 0 4 0L 127.59999084472656 0Q 131.59999084472656 0 131.59999084472656 4L 131.59999084472656 76Q 131.59999084472656 80 127.59999084472656 80L 4 80Q 0 80 0 76Z" stroke="rgba(13,71,161,1)" stroke-width="1" fill-opacity="1" fill="#2196f3"></path><g id="SvgjsG1478"><text id="SvgjsText1479" font-family="微软雅黑" text-anchor="middle" font-size="16px" width="112px" fill="#ffffff" font-weight="700" align="middle" lineHeight="125%" anchor="middle" family="微软雅黑" size="16px" weight="700" font-style="" opacity="1" y="26" transform="rotate(0)"><tspan id="SvgjsTspan1480" dy="20" x="66"><tspan id="SvgjsTspan1481" style="text-decoration:;">登录事件</tspan></tspan></text></g></g><g id="SvgjsG1482" transform="translate(369.23748779296875,290.53749084472656)"><path id="SvgjsPath1483" d="M 0 4Q 0 0 4 0L 596 0Q 600 0 600 4L 600 76Q 600 80 596 80L 4 80Q 0 80 0 76Z" stroke="rgba(0,96,100,1)" stroke-width="1" fill-opacity="1" fill="#00bcd4"></path><g id="SvgjsG1484"><text id="SvgjsText1485" font-family="微软雅黑" text-anchor="middle" font-size="16px" width="580px" fill="#ffffff" font-weight="700" align="middle" lineHeight="125%" anchor="middle" family="微软雅黑" size="16px" weight="700" font-style="" opacity="1" y="26" transform="rotate(0)"><tspan id="SvgjsTspan1486" dy="20" x="300"><tspan id="SvgjsTspan1487" style="text-decoration:;">SaTokenEventCenter 事件发布中心</tspan></tspan></text></g></g><g id="SvgjsG1488"><path id="SvgjsPath1489" d="M435.03748321533203 217.25971306694873L435.03748321533203 254.1014309929102L435.03748321533203 254.1014309929102L435.03748321533203 288.3431489188716" stroke="#323232" stroke-width="2" fill="none" marker-end="url(#SvgjsMarker1490)"></path></g><g id="SvgjsG1492" transform="translate(369.23748779296875,447.53749084472656)"><path id="SvgjsPath1493" d="M 0 4Q 0 0 4 0L 139 0Q 143 0 143 4L 143 76Q 143 80 139 80L 4 80Q 0 80 0 76Z" stroke="rgba(27,94,32,1)" stroke-width="2" fill-opacity="1" fill="#4caf50"></path><g id="SvgjsG1494"><text id="SvgjsText1495" font-family="微软雅黑" text-anchor="middle" font-size="14px" width="123px" fill="#ffffff" font-weight="700" align="middle" lineHeight="125%" anchor="middle" family="微软雅黑" size="14px" weight="700" font-style="" opacity="1" y="28.25" transform="rotate(0)"><tspan id="SvgjsTspan1496" dy="17" x="71.5"><tspan id="SvgjsTspan1497" style="text-decoration:;">侦听器 1</tspan></tspan></text></g></g><g id="SvgjsG1498" transform="translate(597.7374877929688,447.53749084472656)"><path id="SvgjsPath1499" d="M 0 4Q 0 0 4 0L 139 0Q 143 0 143 4L 143 76Q 143 80 139 80L 4 80Q 0 80 0 76Z" stroke="rgba(27,94,32,1)" stroke-width="2" fill-opacity="1" fill="#4caf50"></path><g id="SvgjsG1500"><text id="SvgjsText1501" font-family="微软雅黑" text-anchor="middle" font-size="14px" width="123px" fill="#ffffff" font-weight="700" align="middle" lineHeight="125%" anchor="middle" family="微软雅黑" size="14px" weight="700" font-style="" opacity="1" y="28.25" transform="rotate(0)"><tspan id="SvgjsTspan1502" dy="17" x="71.5"><tspan id="SvgjsTspan1503" style="text-decoration:;">侦听器 2</tspan></tspan></text></g></g><g id="SvgjsG1504" transform="translate(826.2374877929688,447.53749084472656)"><path id="SvgjsPath1505" d="M 0 4Q 0 0 4 0L 139 0Q 143 0 143 4L 143 76Q 143 80 139 80L 4 80Q 0 80 0 76Z" stroke="rgba(27,94,32,1)" stroke-width="2" fill-opacity="1" fill="#4caf50"></path><g id="SvgjsG1506"><text id="SvgjsText1507" font-family="微软雅黑" text-anchor="middle" font-size="14px" width="123px" fill="#ffffff" font-weight="700" align="middle" lineHeight="125%" anchor="middle" family="微软雅黑" size="14px" weight="700" font-style="" opacity="1" y="28.25" transform="rotate(0)"><tspan id="SvgjsTspan1508" dy="17" x="71.5"><tspan id="SvgjsTspan1509" style="text-decoration:;">侦听器 n ……</tspan></tspan></text></g></g><g id="SvgjsG1510"><path id="SvgjsPath1511" d="M669.2374877929688 371.03749084472656L669.2374877929688 409.03749084472656L440.73748779296875 409.03749084472656L440.73748779296875 443.93749084472654" stroke="#323232" stroke-width="2" fill="none" marker-end="url(#SvgjsMarker1512)"></path></g><g id="SvgjsG1514"><path id="SvgjsPath1515" d="M669.2374877929688 371.03749084472656L669.2374877929688 409.03749084472656L897.7374877929688 409.03749084472656L897.7374877929688 443.93749084472654" stroke="#323232" stroke-width="2" fill="none" marker-end="url(#SvgjsMarker1516)"></path></g><g id="SvgjsG1518"><path id="SvgjsPath1519" d="M669.2374877929688 371.03749084472656L669.2374877929688 409.03749084472656L669.2374877929688 409.03749084472656L669.2374877929688 443.93749084472654" stroke="#323232" stroke-width="2" fill="none" marker-end="url(#SvgjsMarker1520)"></path></g><g id="SvgjsG1522" transform="translate(164.23748779296875,313.03749084472656)"><path id="SvgjsPath1523" d="M 0 0L 120 0L 120 40L 0 40Z" stroke="none" fill="none"></path><g id="SvgjsG1524"><text id="SvgjsText1525" font-family="微软雅黑" text-anchor="middle" font-size="13px" width="120px" fill="#323232" font-weight="400" align="middle" lineHeight="125%" anchor="middle" family="微软雅黑" size="13px" weight="400" font-style="" opacity="1" y="9.375" transform="rotate(0)"></text></g></g><g id="SvgjsG1526" transform="translate(1054.2374877929685,310.53749084472656)"><path id="SvgjsPath1527" d="M 0 0L 120 0L 120 40L 0 40Z" stroke="none" fill="none"></path><g id="SvgjsG1528"><text id="SvgjsText1529" font-family="微软雅黑" text-anchor="middle" font-size="13px" width="120px" fill="#323232" font-weight="400" align="middle" lineHeight="125%" anchor="middle" family="微软雅黑" size="13px" weight="400" font-style="" opacity="1" y="9.375" transform="rotate(0)"></text></g></g><g id="SvgjsG1530" transform="translate(767.3374633789062,353.63746643066406)"><path id="SvgjsPath1531" d="M 0 0L 120 0L 120 40L 0 40Z" stroke="none" fill="none"></path><g id="SvgjsG1532"><text id="SvgjsText1533" font-family="微软雅黑" text-anchor="middle" font-size="13px" width="120px" fill="#323232" font-weight="400" align="middle" lineHeight="125%" anchor="middle" family="微软雅黑" size="13px" weight="400" font-style="" opacity="1" y="9.375" transform="rotate(0)"></text></g></g><g id="SvgjsG1534" transform="translate(525.3708241780599,133.53749084472665)"><path id="SvgjsPath1535" d="M 0 4Q 0 0 4 0L 127.59999084472656 0Q 131.59999084472656 0 131.59999084472656 4L 131.59999084472656 76Q 131.59999084472656 80 127.59999084472656 80L 4 80Q 0 80 0 76Z" stroke="rgba(13,71,161,1)" stroke-width="1" fill-opacity="1" fill="#2196f3"></path><g id="SvgjsG1536"><text id="SvgjsText1537" font-family="微软雅黑" text-anchor="middle" font-size="16px" width="112px" fill="#ffffff" font-weight="700" align="middle" lineHeight="125%" anchor="middle" family="微软雅黑" size="16px" weight="700" font-style="" opacity="1" y="26" transform="rotate(0)"><tspan id="SvgjsTspan1538" dy="20" x="66"><tspan id="SvgjsTspan1539" style="text-decoration:;">注销事件</tspan></tspan></text></g></g><g id="SvgjsG1540" transform="translate(681.5041605631511,133.53749084472665)"><path id="SvgjsPath1541" d="M 0 4Q 0 0 4 0L 127.59999084472656 0Q 131.59999084472656 0 131.59999084472656 4L 131.59999084472656 76Q 131.59999084472656 80 127.59999084472656 80L 4 80Q 0 80 0 76Z" stroke="rgba(13,71,161,1)" stroke-width="1" fill-opacity="1" fill="#2196f3"></path><g id="SvgjsG1542"><text id="SvgjsText1543" font-family="微软雅黑" text-anchor="middle" font-size="16px" width="112px" fill="#ffffff" font-weight="700" align="middle" lineHeight="125%" anchor="middle" family="微软雅黑" size="16px" weight="700" font-style="" opacity="1" y="26" transform="rotate(0)"><tspan id="SvgjsTspan1544" dy="20" x="66"><tspan id="SvgjsTspan1545" style="text-decoration:;">被踢下线事件</tspan></tspan></text></g></g><g id="SvgjsG1546" transform="translate(837.6374969482423,133.53749084472665)"><path id="SvgjsPath1547" d="M 0 4Q 0 0 4 0L 127.59999084472656 0Q 131.59999084472656 0 131.59999084472656 4L 131.59999084472656 76Q 131.59999084472656 80 127.59999084472656 80L 4 80Q 0 80 0 76Z" stroke="rgba(13,71,161,1)" stroke-width="1" fill-opacity="1" fill="#2196f3"></path><g id="SvgjsG1548"><text id="SvgjsText1549" font-family="微软雅黑" text-anchor="middle" font-size="16px" width="112px" fill="#ffffff" font-weight="700" align="middle" lineHeight="125%" anchor="middle" family="微软雅黑" size="16px" weight="700" font-style="" opacity="1" y="26" transform="rotate(0)"><tspan id="SvgjsTspan1550" dy="20" x="66"><tspan id="SvgjsTspan1551" style="text-decoration:;">xx 事件 ……</tspan></tspan></text></g></g><g id="SvgjsG1552"><path id="SvgjsPath1553" d="M591.1708196004232 217.25971306694873L591.1708196004232 254.1014309929102L591.1708196004232 254.1014309929102L591.1708196004232 288.3431489188716" stroke="#323232" stroke-width="2" fill="none" marker-end="url(#SvgjsMarker1554)"></path></g><g id="SvgjsG1556"><path id="SvgjsPath1557" d="M747.3041559855144 217.25971306694873L747.3041559855144 254.1014309929102L747.3041559855144 254.1014309929102L747.3041559855144 288.3431489188716" stroke="#323232" stroke-width="2" fill="none" marker-end="url(#SvgjsMarker1558)"></path></g><g id="SvgjsG1560"><path id="SvgjsPath1561" d="M903.4374923706056 217.25971306694873L903.4374923706056 254.1014309929102L903.4374923706055 254.1014309929102L903.4374923706055 288.3431489188716" stroke="#323232" stroke-width="2" fill="none" marker-end="url(#SvgjsMarker1562)"></path></g><g id="SvgjsG1564" transform="translate(25.00907447225873,25.006198161814538)"><path id="SvgjsPath1565" d="M 0 0L 1274.9235421362118 0L 1274.9235421362118 60.19596752728242L 0 60.19596752728242Z" stroke="none" fill="none"></path><g id="SvgjsG1566"><text id="SvgjsText1567" font-family="微软雅黑" text-anchor="middle" font-size="26px" width="1275px" fill="#0066cc" font-weight="700" align="middle" lineHeight="125%" anchor="middle" family="微软雅黑" size="26px" weight="700" font-style="" opacity="1" y="7.34798376364121" transform="rotate(0)"><tspan id="SvgjsTspan1568" dy="32" x="637.5"><tspan id="SvgjsTspan1569" style="text-decoration:;">Sa-Token 全局事件侦听器</tspan></tspan></text></g></g></svg>